HIERARCHY
ROOT pelvis
{
  OFFSET 0 100 0
  CHANNELS 6 Xposition Yposition Zposition Zrotation Xrotation Yrotation
  JOINT pelvis_right_femur
  {
    OFFSET -10.78128 -3.44521 -0.5502486
    CHANNELS 3 Zrotation Xrotation Yrotation
    JOINT right_femur_tibia
    {
      OFFSET -0.8047443 -44.0398 -0.1307829
      CHANNELS 3 Zrotation Xrotation Yrotation
      JOINT right_tibia_foot
      {
        OFFSET 3.006224 -47.83518 -5
        CHANNELS 3 Zrotation Xrotation Yrotation
        End Site
        {
          OFFSET 0 -5 15
        }
      }
    }
  }
  JOINT pelvis_left_femur
  {
    OFFSET 10.78128 -3.44521 -0.5502486
    CHANNELS 3 Zrotation Xrotation Yrotation
    JOINT left_femur_tibia
    {
      OFFSET 0.8047443 -44.0398 -0.1307829
      CHANNELS 3 Zrotation Xrotation Yrotation
      JOINT left_tibia_foot
      {
        OFFSET -4.370144 -48.10324 -4.275266
        CHANNELS 3 Zrotation Xrotation Yrotation
        End Site
        {
          OFFSET 0 -5 15
        }
      }
    }
  }
  JOINT pelvis_spine1
  {
    OFFSET 0 6.468898 -3.129235
    CHANNELS 3 Zrotation Xrotation Yrotation
    JOINT spine1
    {
      OFFSET 0 23.15396 4.99043
      CHANNELS 3 Zrotation Xrotation Yrotation
      JOINT spine2
      {
        OFFSET 0 20.79997 -5.064912
        CHANNELS 3 Zrotation Xrotation Yrotation
        JOINT neck
        {
          OFFSET 0 14.38658 9.616178
          CHANNELS 3 Zrotation Xrotation Yrotation
          End Site
          {
            OFFSET 0 20 0
          }
        }
      }
      JOINT right_manubrium
      {
        OFFSET -5.722621 16.35077 3.967754
        CHANNELS 3 Zrotation Xrotation Yrotation
        JOINT right_clavicle
        {
          OFFSET -13.16364 1.694482 -4.693211
          CHANNELS 3 Zrotation Xrotation Yrotation
          JOINT right_humerus
          {
            OFFSET -28.5034 -0.3100689 -2.792744
            CHANNELS 3 Zrotation Xrotation Yrotation
            JOINT right_radius
            {
              OFFSET -25.15693 0.02248979 -1.271978
              CHANNELS 3 Zrotation Xrotation Yrotation
              End Site
              {
                OFFSET -15 0 0
              }
            }
          }
        }
      }
      JOINT left_manubrium
      {
        OFFSET 5.722621 16.35077 3.967754
        CHANNELS 3 Zrotation Xrotation Yrotation
        JOINT left_clavicle
        {
          OFFSET 13.16364 1.694482 -4.693211
          CHANNELS 3 Zrotation Xrotation Yrotation
          JOINT left_humerus
          {
            OFFSET 29.39168 -1.063119 -2.237045
            CHANNELS 3 Zrotation Xrotation Yrotation
            JOINT left_radius
            {
              OFFSET 24.59957 -0.9528479 0.9047498
              CHANNELS 3 Zrotation Xrotation Yrotation
              End Site
              {
                OFFSET 15 -0 -0
              }
            }
          }
        }
      }
    }
  }
}
MOTION
Frames: 17
Frame Time: 0.0416666666667
0 103.5113 0 -0.307499 -0.4328932 -0.08525253 4.048172 -14.64693 8.143827 -0 34.64691 -0 -7.226571 -13.1898 -2.651182 -5.713049 7.18577 -19.91129 -0 4.806717 -0 7.43299 -16.73639 24.97242 -2.752468 -4.572594 5.174848 2.781527 10.70585 -8.202582 1.592443 21.36015 5.697754 2.24206 -26.34883 9.293753 5.185694 -21.6498 11.44102 85.35344 31.41721 -17.88259 -0 0 18.38723 -10.2444 9.646958 5.252687 6.831692 -20.95267 -0.2450698 -94.97832 20.94914 23.51355 0 0 -8.616934 13.27471 18.14513 -2.013981
0.3827273 103.8148 2.231009 -0.4455426 0.01569499 -0.1041103 4.68651 -17.42758 8.370791 -0 33.64746 -0 -6.769592 -12.27903 -2.57456 -5.703751 7.775169 -19.99045 -0 5.385504 -0 7.04508 -17.74353 24.83495 -2.594155 -4.191846 5.162495 2.802298 10.68947 -8.270307 1.547229 20.98703 6.078777 2.611336 -26.5446 9.419728 5.347483 -21.32032 11.61985 85.49435 31.80215 -18.5297 -0 0 18.27966 -9.849202 9.630626 4.772475 7.270638 -21.14999 -0.2622334 -94.84837 21.12067 23.09791 0 0 -10.13703 13.17744 17.66951 -1.844761
0.7520897 103.9856 4.883876 -1.394316 0.6039079 0.0302297 6.093573 -21.26434 7.417501 -0 29.62891 -0 -6.825637 -8.128316 -1.768109 -4.793545 7.951101 -18.63263 -0 7.903057 -0 2.900529 -20.19606 22.34574 -1.766547 -3.477179 4.784007 2.959586 10.94829 -8.599024 1.337276 20.09323 6.906255 3.468795 -27.38371 9.530512 5.082362 -20.8656 11.96199 85.67059 30.12321 -19.6497 -0 0 18.60995 -11.09765 10.21369 4.481819 8.546558 -22.09508 -0.04094481 -95.57751 20.86365 23.01189 0 0 -10.01598 12.72365 17.38108 -2.07284
1.123025 104.0922 8.149291 -2.229102 0.4890842 0.24724 6.772235 -21.95316 5.518939 -0 25.8676 -0 -7.440886 -4.492689 -0.7621542 -3.716655 7.264455 -16.58298 -0 11.30998 -0 -0.7798643 -20.76979 19.39803 -1.018443 -3.204203 4.29714 3.1402 11.47893 -8.858844 1.110794 19.69895 7.306104 3.89308 -27.74313 9.361013 4.63128 -20.69195 12.32526 85.71932 27.39499 -20.09656 -0 0 18.60528 -13.44694 11.20685 5.110433 9.255679 -23.03756 -0.1283857 -96.09147 19.8754 22.84788 0 0 -8.29541 13.01361 17.45092 -3.406139
1.486147 104.2012 12.09654 -2.798679 -0.02864465 0.4962073 7.096896 -21.3488 3.190456 -0 21.86088 -0 -8.2066 -1.481353 0.2728302 -2.72468 6.306237 -14.24824 -0 15.84508 -0 -3.32931 -20.04224 16.71631 -0.4061386 -3.188291 3.859149 3.252008 12.18881 -9.023598 0.9140149 19.69227 7.43409 4.069602 -27.48696 8.990354 4.116223 -20.48724 12.70607 85.91627 24.47831 -20.43292 -0 0 17.93852 -16.09317 12.34927 6.09202 9.631571 -24.06689 -0.5844388 -96.07451 18.56376 22.15376 0 0 -6.907867 14.06918 17.61283 -5.498426
1.823033 104.3568 16.70385 -3.065699 -1.027547 0.7117911 7.18549 -19.40166 0.6872825 -0 17.81279 -0 -9.104131 0.8802907 1.197089 -1.859148 5.051962 -11.82289 -0 21.34803 -0 -4.895363 -18.3866 14.63606 0.1096527 -3.410998 3.583015 3.184628 13.06447 -9.053422 0.7972942 20.04534 7.302565 4.068795 -26.62622 8.451783 3.413744 -20.31237 13.03375 86.41461 21.34721 -20.74455 -0 0 16.82585 -18.88656 13.47806 7.180939 9.799173 -25.21419 -1.36763 -95.76332 17.16014 21.177 0 0 -5.989557 15.60447 18.0022 -7.91768
2.106342 104.609 21.88175 -3.043226 -2.507219 0.8312675 7.213988 -16.32821 -1.69896 -0 13.95801 -0 -10.0488 2.535767 1.838945 -1.133931 3.527285 -9.488381 -0 27.61657 -0 -5.604206 -16.12067 13.3404 0.5668554 -3.782976 3.517977 2.905031 14.06058 -8.934863 0.7977603 20.67335 6.938421 3.942498 -25.25886 7.808283 2.446118 -20.23947 13.28591 87.30914 18.11481 -21.03963 -0 0 15.4865 -21.62305 14.45771 8.188304 9.773625 -26.41274 -2.446845 -95.2709 15.82573 20.11773 0 0 -5.733042 17.24078 18.58706 -10.2039
2.304958 105.0151 27.47528 -2.788861 -4.309698 0.8075454 7.308955 -12.66455 -3.57639 -0 10.71192 -0 -10.91568 3.378457 1.997729 -0.5885348 1.884822 -7.498223 -0 34.12415 -0 -5.538012 -13.60533 12.91341 0.9651394 -4.163675 3.664448 2.455387 15.05285 -8.689904 0.9349862 21.42604 6.385651 3.71476 -23.62303 7.163161 1.229668 -20.33356 13.43782 88.5978 15.18241 -21.26573 -0 0 14.16121 -23.93094 15.13714 8.952948 9.484772 -27.47309 -3.727975 -94.62938 14.73677 19.20772 0 0 -6.338208 18.45123 19.2371 -11.73437
2.395251 105.623 33.30258 -2.415293 -6.184058 0.607352 7.500177 -8.990715 -4.646009 -0 8.441687 -0 -11.62029 3.420513 1.581209 -0.2262321 0.2368383 -6.016137 -0 40.25213 -0 -4.82906 -11.12232 13.23001 1.296996 -4.422181 3.981493 1.928018 15.92711 -8.371289 1.191064 22.1161 5.705781 3.389126 -22.0249 6.60996 -0.1355048 -20.65341 13.48353 90.16164 12.96137 -21.33932 -0 0 13.098 -25.51874 15.45746 9.442698 8.863028 -28.19966 -5.071908 -93.862 13.96371 18.70277 0 0 -7.787475 18.78954 19.78385 -12.00792
2.370793 106.449 39.19443 -2.050278 -7.87939 0.2078906 7.739873 -5.725402 -4.798482 -0 7.312623 -0 -12.13498 2.805148 0.6680989 0.003817453 -1.401345 -5.064189 -0 45.40173 -0 -3.677301 -8.858069 14.00769 1.557628 -4.475996 4.410561 1.419576 16.61815 -8.03761 1.511401 22.58264 4.97306 2.96931 -20.73232 6.200025 -1.499002 -21.23283 13.43755 91.79601 11.69022 -21.18975 -0 0 12.51697 -26.2916 15.46531 9.749018 7.913576 -28.46926 -6.327407 -93.03851 13.48036 18.82608 0 0 -9.799664 18.07612 20.06496 -10.85024
2.245327 107.4614 45.02476 -1.782382 -9.237026 -0.3972371 7.958407 -2.988637 -4.156507 -0 7.171521 -0 -12.45985 1.733428 -0.5194075 0.193734 -3.115689 -4.527666 -0 49.10163 -0 -2.318514 -6.912742 14.93 1.74546 -4.313867 4.901564 0.9901077 17.12162 -7.725409 1.826721 22.75103 4.254505 2.474821 -19.87026 5.927722 -2.717811 -22.06708 13.33106 93.27577 11.33971 -20.77743 -0 0 12.56121 -26.37177 15.294 10.01865 6.742366 -28.27841 -7.376227 -92.27772 13.20265 19.68286 0 0 -11.93404 16.48705 19.97644 -8.516652
2.048878 108.5809 50.72444 -1.636351 -10.21589 -1.188015 8.10226 -0.6382116 -3.014577 -0 7.616319 -0 -12.58812 0.3802963 -1.714176 0.4374325 -5.022229 -4.225943 -0 51.02587 -0 -0.9739296 -5.336276 15.76356 1.859312 -3.990278 5.423307 0.6522948 17.46912 -7.440598 2.080894 22.64129 3.592654 1.940639 -19.4052 5.746721 -3.699623 -23.1169 13.19875 94.4167 11.66611 -20.08667 -0 0 13.27555 -26.01116 15.10863 10.36974 5.520541 -27.72566 -8.154876 -91.70815 13.03729 21.22426 0 0 -13.76316 14.43711 19.52766 -5.560367
1.820486 109.6971 56.27918 -1.591704 -10.85321 -2.119056 8.143644 1.578377 -1.70735 -0 8.21411 -0 -12.50184 -1.145181 -2.704826 0.7985319 -7.180686 -3.993881 -0 50.97669 -0 0.1956298 -4.144872 16.39906 1.901892 -3.597897 5.956353 0.3898379 17.69483 -7.171965 2.245419 22.32638 3.001902 1.40185 -19.21462 5.601622 -4.411552 -24.32901 13.06609 95.10767 12.34974 -19.11483 -0 0 14.62323 -25.47392 15.04442 10.85648 4.413776 -26.94854 -8.648248 -91.41891 12.90809 23.28793 0 0 -14.99947 12.3468 18.83881 -2.559058
1.601093 110.6944 61.71727 -1.619193 -11.20235 -3.131787 8.079755 3.864828 -0.4908706 -0 8.706926 -0 -12.19067 -2.792918 -3.383158 1.300999 -9.544848 -3.73011 -0 48.87886 -0 1.10996 -3.319462 16.81703 1.885752 -3.233366 6.47837 0.185137 17.81432 -6.912408 2.315377 21.88169 2.478927 0.879319 -19.17761 5.453469 -4.857923 -25.65255 12.94494 95.30893 13.12591 -17.87408 -0 0 16.51551 -24.954 15.1693 11.48319 3.52574 -26.06173 -8.866322 -91.43301 12.763 25.67148 0 0 -15.52004 10.48079 18.06626 0.08906625
1.427846 111.4771 67.09376 -1.703542 -11.29529 -4.167235 7.930474 6.299278 0.499864 -0 9.077825 -0 -11.67061 -4.54697 -3.735129 1.934751 -11.96935 -3.403146 -0 44.80272 -0 1.760475 -2.804107 17.03395 1.833589 -2.972641 6.954878 0.03654529 17.8225 -6.671686 2.29799 21.36183 2.015686 0.3768249 -19.22492 5.288028 -5.052669 -27.03952 12.83843 95.03339 13.84434 -16.40019 -0 0 18.82841 -24.55185 15.48153 12.22979 2.882835 -25.13102 -8.82451 -91.71089 12.57304 28.18091 0 0 -15.31581 8.939166 17.32942 2.193385
1.329314 111.9867 72.47415 -1.845237 -11.14162 -5.173517 7.730965 8.841821 1.225965 -0 9.485788 -0 -10.99105 -6.403699 -3.806882 2.662759 -14.2518 -3.035435 -0 38.99289 -0 2.184391 -2.515695 17.07256 1.771031 -2.860949 7.339868 -0.03938213 17.70327 -6.476117 2.20491 20.80636 1.606934 -0.112375 -19.33988 5.111479 -5.005626 -28.43466 12.74859 94.32759 14.45936 -14.75693 -0 0 21.40413 -24.29319 15.92803 13.06334 2.452637 -24.18196 -8.537016 -92.17213 12.32994 30.63912 0 0 -14.42451 7.732254 16.6929 3.690091
1.32143 112.2098 77.91864 -2.051612 -10.74778 -6.109231 7.51974 11.37865 1.698642 -0 10.15043 -0 -10.23118 -8.356268 -3.673675 3.424595 -16.18157 -2.68588 -0 31.87722 -0 2.437979 -2.362822 16.96024 1.716644 -2.912671 7.583785 -0.01545313 17.44172 -6.359301 2.050713 20.25514 1.252429 -0.5962474 -19.53609 4.942864 -4.725227 -29.76679 12.68024 93.2606 14.98838 -13.03261 -0 0 24.05067 -24.16002 16.42517 13.93803 2.173979 -23.22238 -8.02022 -92.72138 12.04408 32.87783 0 0 -12.88883 6.8484 16.18809 4.560892
